<?xml version="1.0" encoding="utf-8"?>
<!-- Generator: Adobe Illustrator 23.0.0, SVG Export Plug-In . SVG Version: 6.00 Build 0)  -->
<svg version="1.1" id="Layer_1" xmlns="http://www.w3.org/2000/svg" xmlns:xlink="http://www.w3.org/1999/xlink" x="0px" y="0px"
	 viewBox="0 0 1024 1024" style="enable-background:new 0 0 1024 1024;" xml:space="preserve">
<style type="text/css">
	.st0{fill:#EDF2F4;}
	.st1{fill:none;}
	.st2{fill:#5DADE2;}
</style>
<g>
	<path class="st0" d="M429,169.3c-48.9-48.9-127.7-48.9-176.5,0L247,175c-0.5,0.2-0.8,0.5-1,1l-2.5,2.5c-0.5,0.2-0.7,0.5-1,1
		c-5.5,6.2-8.7,14.5-8.7,23.4c0,10.2,4.2,19.2,10.7,25.9l75.6,75.6c24.4,24.7,24.4,64.6,0,89.3h-0.2c-12.2,12.5-28.4,18.5-44.6,18.5
		c-16,0-32.2-6-44.4-18.5l-75.6-75.6c-6.5-6.7-15.5-10.7-25.7-10.7c-9.7,0-18.7,3.7-25.2,10c-0.5,0.5-1,1-1.5,1.5l-11.2,11.2
		c-48.9,48.9-48.9,127.7,0,176.5l359.8,359.8c33.4,33.4,87.8,33.4,121.2,0l276.8-276.8L429,169.3z"/>
	<line class="st1" x1="724.1" y1="714.5" x2="660.8" y2="778.1"/>
	<path class="st2" d="M932.5,506.5l-83.3,83L572.5,866.3c48.9-48.9,48.9-127.7,0-176.5L411.6,529c-48.6-48.9-48.6-127.7,0-176.3
		l183.5-183.5c48.6-48.9,127.7-48.9,176.3,0l161.1,161.1C981.2,378.9,981.2,457.6,932.5,506.5z"/>
	<circle class="st2" cx="272.3" cy="346" r="32.1"/>
</g>
</svg>
