<?xml version="1.0" encoding="utf-8"?>
<!-- Generator: Adobe Illustrator 23.0.0, SVG Export Plug-In . SVG Version: 6.00 Build 0)  -->
<svg version="1.1" id="Layer_1" xmlns="http://www.w3.org/2000/svg" xmlns:xlink="http://www.w3.org/1999/xlink" x="0px" y="0px"
	 viewBox="0 0 1024 1024" style="enable-background:new 0 0 1024 1024;" xml:space="preserve">
<style type="text/css">
	.st0{fill:#2B2D42;}
	.st1{fill:none;}
	.st2{fill:#5DADE2;}
</style>
<g>
	<path class="st0" d="M425.9,156.5c-50.7-50.7-132.4-50.7-183.1,0l-5.7,5.9c-0.5,0.3-0.8,0.5-1,1l-2.6,2.6c-0.5,0.3-0.8,0.5-1,1
		c-5.7,6.5-9.1,15-9.1,24.3c0,10.6,4.4,19.9,11.1,26.9l78.4,78.4c25.3,25.6,25.3,67,0,92.6h-0.3c-12.7,12.9-29.5,19.1-46.3,19.1
		c-16.6,0-33.4-6.2-46-19.1L142,310.9c-6.7-7-16-11.1-26.6-11.1c-10.1,0-19.4,3.9-26.1,10.3c-0.5,0.5-1,1-1.6,1.6L76,323.3
		C25.3,374,25.3,455.7,76,506.4l373.2,373.2c34.7,34.7,91,34.7,125.7,0L862,592.6L425.9,156.5z"/>
	<line class="st1" x1="732" y1="722" x2="666.3" y2="788"/>
	<path class="st2" d="M948.2,506.3l-86.4,86.1L574.7,879.5c50.7-50.7,50.7-132.4,0-183.1L407.9,529.6c-50.4-50.7-50.4-132.4,0-182.8
		l190.4-190.3c50.4-50.7,132.4-50.7,182.9,0l167.1,167.1C998.6,373.9,998.6,455.6,948.2,506.3z"/>
	<circle class="st2" cx="263.4" cy="339.8" r="38"/>
</g>
</svg>
