<?xml version="1.0" encoding="utf-8"?>
<!-- Generator: Adobe Illustrator 23.0.0, SVG Export Plug-In . SVG Version: 6.00 Build 0)  -->
<svg version="1.1" id="Layer_1" xmlns="http://www.w3.org/2000/svg" xmlns:xlink="http://www.w3.org/1999/xlink" x="0px" y="0px"
	 viewBox="0 0 1024 184" style="enable-background:new 0 0 1024 184;" xml:space="preserve">
<style type="text/css">
	.st0{fill:#EDF2F4;}
	.st1{fill:#5DADE2;}
	.st2{fill:none;}
</style>
<g>
	<path class="st0" d="M252.5,134.3c-2.5,0-4.5-1.3-5.9-4l-25.9-54.6c-0.7-1.4-0.7-2.7-0.2-4c0.6-1.4,1.6-2.4,3.2-3.2
		c1.4-0.7,2.8-0.9,4.2-0.4c1.5,0.5,2.6,1.4,3.3,2.8l24.2,52.1h-5.9l23.9-52.1c0.7-1.4,1.8-2.3,3.3-2.8c1.5-0.5,3.1-0.4,4.6,0.4
		c1.5,0.7,2.4,1.7,2.9,3.1s0.4,2.8-0.2,4.2l-25.9,54.6C256.8,133,255,134.3,252.5,134.3L252.5,134.3z"/>
	<path class="st0" d="M324.6,134.9c-6.6,0-12.4-1.4-17.5-4.3c-5-2.9-9-6.9-12-12c-2.8-5.1-4.3-11-4.3-17.6c0-6.7,1.4-12.5,4.3-17.6
		c2.9-5.1,6.9-9.1,12-12c5-2.9,10.9-4.4,17.5-4.4c6.5,0,12.3,1.5,17.3,4.4c5,2.8,9,6.8,11.8,12c2.9,5,4.4,10.9,4.4,17.6
		c0,6.6-1.4,12.5-4.3,17.6c-2.8,5-6.8,9-11.8,12C337,133.5,331.2,134.9,324.6,134.9z M324.6,123.9c4.2,0,8-1,11.2-2.9
		c3.3-2,5.8-4.6,7.6-8.1c1.9-3.4,2.8-7.4,2.8-11.8c0-4.5-0.9-8.4-2.8-11.8c-1.8-3.5-4.3-6.2-7.6-8.2c-3.3-2-7-2.9-11.2-2.9
		c-4.2,0-8,1-11.2,2.9c-3.3,2-5.8,4.7-7.7,8.2c-1.9,3.4-2.8,7.4-2.8,11.8c0,4.5,0.9,8.4,2.8,11.8c1.9,3.4,4.4,6.1,7.7,8.1
		C316.6,122.9,320.4,123.9,324.6,123.9z"/>
	<path class="st0" d="M384.2,134.4c-1.8,0-3.3-0.6-4.5-1.7c-1.1-1.2-1.7-2.7-1.7-4.5V73.9c0-1.9,0.6-3.4,1.7-4.5
		c1.2-1.1,2.7-1.7,4.5-1.7c1.9,0,3.4,0.6,4.5,1.7c1.1,1.1,1.7,2.6,1.7,4.5v54.3c0,1.8-0.6,3.3-1.7,4.5
		C387.6,133.9,386.1,134.4,384.2,134.4z M384.2,56.8c-2.2,0-4.1-0.8-5.7-2.3c-1.5-1.6-2.3-3.5-2.3-5.7s0.8-4.1,2.3-5.6
		c1.6-1.6,3.5-2.4,5.7-2.4s4.1,0.8,5.6,2.4c1.6,1.5,2.4,3.4,2.4,5.6s-0.8,4.1-2.4,5.7C388.3,56,386.4,56.8,384.2,56.8z"/>
	<path class="st0" d="M429.5,134.4c-3.6,0-6.8-1-9.5-2.9c-2.8-2-4.9-4.6-6.5-7.9c-1.5-3.4-2.3-7.3-2.3-11.7V45.2
		c0-1.8,0.6-3.3,1.7-4.4c1.1-1.1,2.6-1.7,4.4-1.7c1.8,0,3.3,0.6,4.4,1.7c1.1,1.1,1.7,2.6,1.7,4.4v66.7c0,3,0.6,5.5,1.7,7.4
		c1.1,2,2.6,2.9,4.4,2.9h3.1c1.6,0,2.9,0.6,3.9,1.7c1.1,1.1,1.6,2.6,1.6,4.4c0,1.8-0.8,3.3-2.3,4.4c-1.5,1.1-3.5,1.7-6,1.7H429.5z"
		/>
	<path class="st0" d="M474.4,134.9c-5.9,0-11.3-1.5-16-4.4c-4.7-3-8.5-7-11.2-12.1c-2.7-5.1-4-10.9-4-17.3c0-6.4,1.5-12.2,4.4-17.3
		c3-5.1,7-9.2,12.1-12.1c5.1-3,10.9-4.5,17.2-4.5c6.3,0,12,1.5,17.1,4.5c5,2.9,9,7,12,12.1c3,5.1,4.5,10.9,4.5,17.3h-4.8
		c0,6.4-1.4,12.2-4.2,17.3c-2.7,5-6.4,9.1-11.1,12.1C485.7,133.4,480.4,134.9,474.4,134.9L474.4,134.9z M476.9,123.9
		c4.2,0,7.9-1,11.1-2.9c3.3-2,5.8-4.8,7.7-8.2c1.9-3.5,2.8-7.4,2.8-11.7c0-4.4-0.9-8.3-2.8-11.7c-1.9-3.5-4.4-6.2-7.7-8.2
		c-3.3-2-7-3.1-11.1-3.1c-4.1,0-7.8,1-11.1,3.1c-3.3,2-5.9,4.7-7.8,8.2c-1.9,3.4-2.8,7.3-2.8,11.7c0,4.3,0.9,8.2,2.8,11.7
		c2,3.4,4.6,6.1,7.8,8.2C469.1,122.9,472.8,123.9,476.9,123.9z M504.2,134.5c-1.8,0-3.3-0.6-4.5-1.7c-1.1-1.2-1.7-2.7-1.7-4.5v-18.7
		l2.3-12.9l10.1,4.4v27.2c0,1.8-0.6,3.3-1.8,4.5C507.5,134,506,134.5,504.2,134.5L504.2,134.5z M476.5,57.1c-1.8,0-3.2-0.6-4.3-1.7
		l-12-11.8c-1.1-1.1-1.6-2.5-1.6-4.3c0-1.8,0.6-3.3,1.7-4.5c1.1-1.2,2.6-1.8,4.4-1.8c1.7,0,3.2,0.6,4.5,1.8l11.8,12
		c1.1,1.1,1.6,2.4,1.6,4.2c0,1.8-0.6,3.3-1.8,4.5C479.8,56.6,478.3,57.1,476.5,57.1L476.5,57.1z"/>
	<path class="st0" d="M532.5,111.8c-1.8,0-3.3-0.6-4.5-1.8c-1.1-1.3-1.7-2.8-1.7-4.4V45.4c0-1.8,0.6-3.3,1.7-4.5
		c1.2-1.2,2.7-1.8,4.5-1.8c1.8,0,3.3,0.6,4.4,1.8c1.2,1.2,1.8,2.7,1.8,4.5v60.2c0,1.7-0.7,3.2-2,4.4
		C535.6,111.2,534.2,111.8,532.5,111.8z M532.5,134.4c-2.3,0-4.3-0.8-6-2.4c-1.6-1.6-2.4-3.6-2.4-6c0-2.4,0.8-4.4,2.4-6
		c1.7-1.7,3.7-2.6,6-2.6c2.4,0,4.4,0.9,6,2.6c1.6,1.6,2.4,3.6,2.4,6c0,2.4-0.9,4.4-2.6,6C536.8,133.6,534.8,134.4,532.5,134.4
		L532.5,134.4z"/>
</g>
<g>
	<path class="st1" d="M690.2,134.4c-1.4,0-2.5-0.4-3.4-1.2c-0.9-0.9-1.3-2-1.3-3.4V94.6c0-5.8-1.5-10.3-4.5-13.7
		c-3-3.4-6.9-5.1-11.6-5.1c-5,0-9.2,1.7-12.5,5.1c-3.2,3.3-4.7,7.8-4.6,13.4h-8.4c0.1-5.5,1.3-10.3,3.5-14.4
		c2.3-4.2,5.4-7.4,9.4-9.6c4-2.3,8.5-3.4,13.6-3.4c4.8,0,9,1.1,12.7,3.4c3.7,2.3,6.6,5.5,8.7,9.6c2.1,4.2,3.2,9,3.2,14.7v35.2
		c0,1.4-0.4,2.5-1.3,3.4C692.7,134,691.6,134.4,690.2,134.4L690.2,134.4z M604.7,134.4c-1.5,0-2.6-0.4-3.5-1.2
		c-0.8-0.9-1.2-2-1.2-3.4V72.4c0-1.4,0.4-2.5,1.2-3.4c0.9-0.9,2.1-1.3,3.5-1.3c1.4,0,2.5,0.4,3.3,1.3c0.9,0.9,1.3,2,1.3,3.4v57.4
		c0,1.4-0.4,2.5-1.3,3.4C607.2,134,606.1,134.4,604.7,134.4z M647.6,134.4c-1.4,0-2.5-0.4-3.4-1.2c-0.9-0.9-1.3-2-1.3-3.4V94.6
		c0-5.8-1.5-10.3-4.5-13.7c-3-3.4-6.9-5.1-11.6-5.1c-5,0-9.2,1.7-12.5,5c-3.3,3.3-4.9,7.5-4.9,12.8h-6.7c0.2-5.2,1.3-9.8,3.4-13.8
		c2.2-4.1,5.2-7.2,8.9-9.5c3.7-2.3,8-3.4,12.7-3.4c4.8,0,9,1.1,12.7,3.4c3.7,2.3,6.6,5.5,8.7,9.6c2.1,4.2,3.2,9,3.2,14.7v35.2
		c0,1.4-0.4,2.5-1.3,3.4C650,134,648.9,134.4,647.6,134.4L647.6,134.4z"/>
	<path class="st1" d="M746,135c-6.5,0-12.3-1.5-17.5-4.4c-5.1-2.9-9.2-7-12.1-12.1c-2.9-5.1-4.4-10.9-4.4-17.5
		c0-6.6,1.5-12.5,4.4-17.6c2.9-5.1,7-9.2,12.1-12.1c5.1-2.9,10.9-4.4,17.5-4.4c6.5,0,12.3,1.5,17.3,4.4c5.1,2.9,9.2,7,12.1,12.1
		c2.9,5.1,4.4,11,4.5,17.6c0,6.5-1.5,12.3-4.5,17.5c-2.9,5.1-7,9.2-12.1,12.1C758.3,133.6,752.5,135,746,135z M746,126.5
		c4.7,0,9-1.1,12.7-3.3c3.7-2.2,6.7-5.2,8.8-9c2.1-3.8,3.2-8.2,3.2-13.1c0-4.9-1.1-9.2-3.2-13.1c-2.1-3.9-5-7-8.8-9.2
		c-3.7-2.2-8-3.3-12.7-3.3c-4.7,0-9,1.1-12.7,3.3c-3.7,2.2-6.7,5.3-8.9,9.2c-2.1,3.8-3.2,8.2-3.2,13.1c0,4.9,1.1,9.2,3.2,13.1
		c2.2,3.8,5.2,6.8,8.9,9C737,125.4,741.3,126.5,746,126.5z"/>
	<path class="st1" d="M855.5,134.4c-1.4,0-2.5-0.4-3.4-1.3c-0.9-0.9-1.3-2-1.3-3.3V98c0-5-1-9.2-2.9-12.5c-1.9-3.3-4.5-5.7-7.8-7.3
		c-3.3-1.6-7-2.4-11.1-2.4c-4,0-7.6,0.8-10.9,2.3c-3.2,1.5-5.7,3.7-7.6,6.3c-1.9,2.7-2.8,5.7-2.8,9.2h-6.7c0.2-5.1,1.5-9.7,4.2-13.7
		c2.6-4.1,6.1-7.2,10.4-9.5c4.3-2.4,9.1-3.5,14.4-3.5c5.8,0,10.9,1.2,15.5,3.7c4.6,2.4,8.1,5.9,10.7,10.5c2.7,4.6,4,10.3,4,17v31.7
		c0,1.3-0.4,2.4-1.3,3.3C857.9,134,856.8,134.4,855.5,134.4L855.5,134.4z M803,134.4c-1.5,0-2.6-0.4-3.5-1.2c-0.8-0.9-1.2-2-1.2-3.4
		V72.4c0-1.5,0.4-2.6,1.2-3.4c0.9-0.9,2.1-1.3,3.5-1.3c1.4,0,2.5,0.4,3.3,1.3c0.9,0.8,1.3,2,1.3,3.4v57.4c0,1.4-0.4,2.5-1.3,3.4
		C805.5,134,804.4,134.4,803,134.4z"/>
	<path class="st1" d="M911.2,135c-6.6,0-12.5-1.4-17.6-4.3c-5-2.9-9-7-12-12.1c-2.8-5.1-4.3-11-4.3-17.6c0-6.7,1.3-12.5,4-17.6
		c2.8-5.1,6.6-9.2,11.4-12.1c4.8-2.9,10.3-4.4,16.6-4.4c6.2,0,11.6,1.4,16.1,4.3c4.6,2.8,8.2,6.6,10.7,11.6c2.5,5,3.8,10.6,3.8,17
		c0,1.3-0.4,2.4-1.2,3.2c-0.8,0.7-1.9,1.1-3.2,1.1h-51.9v-7.8h52.9l-5.3,3.8c0.1-4.7-0.8-9-2.6-12.7c-1.8-3.7-4.4-6.7-7.7-8.8
		c-3.3-2.1-7.2-3.2-11.7-3.2c-4.6,0-8.7,1.1-12.2,3.3c-3.5,2.2-6.2,5.3-8.2,9.2c-1.9,3.8-2.8,8.2-2.8,13.2s1.1,9.4,3.2,13.2
		c2.2,3.8,5.2,6.8,8.9,9c3.7,2.2,8.1,3.3,12.9,3.3c2.9,0,5.9-0.5,8.8-1.5c3-1.1,5.4-2.4,7.2-3.9c0.9-0.7,1.9-1.1,3.1-1.1
		c1.1-0.1,2.1,0.2,2.9,0.9c1.1,1,1.6,2,1.6,3.2c0.1,1.1-0.4,2.1-1.3,2.9c-2.7,2.3-6.1,4.2-10.3,5.7C919,134.3,915,135,911.2,135
		L911.2,135z"/>
	<path class="st1" d="M967.3,163.5c-0.7,0-1.4-0.2-2.2-0.5c-2.8-1.2-3.5-3.2-2.3-5.9l39.4-86.9c1.2-2.6,3.2-3.3,5.9-2.2
		c2.8,1.1,3.5,3.1,2.3,5.7l-39.6,86.9C970.1,162.5,968.9,163.5,967.3,163.5L967.3,163.5z M980.9,132.3c-1.2,0.6-2.4,0.7-3.4,0.4
		c-1.1-0.4-1.9-1.2-2.6-2.4l-27.2-56.4c-0.6-1.2-0.7-2.4-0.2-3.4c0.4-1.1,1.2-1.9,2.4-2.4c1.2-0.6,2.4-0.7,3.4-0.2
		c1.1,0.3,1.9,1.1,2.4,2.3l26.7,56.4c0.7,1.2,0.9,2.4,0.6,3.4S982.1,131.8,980.9,132.3L980.9,132.3z"/>
</g>
<path class="st0" d="M85.4,29.1c-9-9-23.4-9-32.4,0l-1,1.1c-0.1,0-0.1,0.1-0.2,0.2l-0.5,0.5c-0.1,0-0.1,0.1-0.2,0.2
	c-1,1.1-1.6,2.6-1.6,4.3c0,1.9,0.8,3.5,2,4.8l13.8,13.8c4.5,4.5,4.5,11.8,0,16.4h0c-2.2,2.3-5.2,3.4-8.2,3.4c-2.9,0-5.9-1.1-8.1-3.4
	L35.3,56.4c-1.2-1.2-2.8-2-4.7-2c-1.8,0-3.4,0.7-4.6,1.8c-0.1,0.1-0.2,0.2-0.3,0.3l-2.1,2.1c-9,9-9,23.4,0,32.4l65.9,65.9
	c6.1,6.1,16.1,6.1,22.2,0l50.7-50.7L85.4,29.1z"/>
<line class="st2" x1="139.5" y1="129.1" x2="127.9" y2="140.7"/>
<path class="st1" d="M177.7,90.9l-15.3,15.2l-50.7,50.7c9-9,9-23.4,0-32.4L82.2,95.1c-8.9-9-8.9-23.4,0-32.3l33.6-33.6
	c8.9-9,23.4-9,32.3,0l29.5,29.5C186.6,67.6,186.6,82,177.7,90.9z"/>
<circle class="st1" cx="56.7" cy="61.5" r="5.9"/>
</svg>
