<svg width="791" height="131" xmlns="http://www.w3.org/2000/svg" version="1.1" xml:space="preserve">
 <g>
  <title>Layer 1</title>
  <g>
   <g transform="translate(0 -0.913576) scale(0.26458 0.26458)">
    <g>
     <path fill="#2B2D42" d="m122.13065,386.55292c-9.5,0 -16.9,-5.1 -22.2,-15.2l-97.8,-206.3c-2.5,-5.2 -2.8,-10.3 -0.9,-15.2c2.2,-5.2 6.2,-9.2 12,-12c5.2,-2.8 10.5,-3.2 15.7,-1.4c5.5,1.8 9.7,5.4 12.5,10.6l91.4,197.1l-22.2,0l90.5,-197.1c2.8,-5.2 6.9,-8.8 12.5,-10.6c5.8,-1.8 11.7,-1.4 17.5,1.4c5.5,2.5 9.2,6.3 11.1,11.5c1.8,5.2 1.5,10.5 -0.9,15.7l-97.8,206.3c-4.8,10.2 -11.9,15.2 -21.4,15.2l0,0z" class="st0"/>
     <path fill="#2B2D42" d="m394.83065,388.85292c-24.9,0 -46.9,-5.4 -66,-16.2c-19.1,-11.1 -34.1,-26.2 -45.2,-45.2c-10.8,-19.4 -16.2,-41.5 -16.2,-66.5c0,-25.2 5.4,-47.4 16.2,-66.5c11.1,-19.4 26.2,-34.5 45.2,-45.2c19.1,-11.1 41.1,-16.6 66,-16.6c24.6,0 46.5,5.5 65.5,16.6c19.1,10.8 34,25.8 44.8,45.2c11.1,19.1 16.6,41.2 16.6,66.5c0,24.9 -5.4,47.1 -16.2,66.5c-10.8,19.1 -25.7,34.1 -44.8,45.2c-19,10.9 -41,16.2 -65.9,16.2zm0,-41.5c16,0 30.2,-3.7 42.5,-11.1c12.3,-7.4 21.8,-17.5 28.6,-30.5c7.1,-12.9 10.6,-27.8 10.6,-44.8c0,-16.9 -3.5,-31.8 -10.6,-44.8c-6.8,-13.2 -16.3,-23.5 -28.6,-30.9c-12.3,-7.4 -26.5,-11.1 -42.5,-11.1c-16,0 -30.1,3.7 -42.5,11.1c-12.3,7.4 -22,17.7 -29.1,30.9c-7.1,12.9 -10.6,27.8 -10.6,44.8c0,16.9 3.5,31.8 10.6,44.8s16.8,23.1 29.1,30.5c12.4,7.4 26.5,11.1 42.5,11.1z" class="st0"/>
     <path fill="#2B2D42" d="m620.03065,387.05292c-6.8,0 -12.5,-2.2 -17.1,-6.5c-4.3,-4.6 -6.5,-10.3 -6.5,-17.1l0,-205.3c0,-7.1 2.2,-12.8 6.5,-17.1c4.6,-4.3 10.3,-6.5 17.1,-6.5c7.1,0 12.8,2.2 17.1,6.5c4.3,4.3 6.5,10 6.5,17.1l0,205.4c0,6.8 -2.2,12.5 -6.5,17.1c-4.3,4.2 -10,6.4 -17.1,6.4zm0,-293.5c-8.3,0 -15.5,-2.9 -21.7,-8.8c-5.8,-6.2 -8.8,-13.4 -8.8,-21.7s2.9,-15.4 8.8,-21.2c6.2,-6.2 13.4,-9.2 21.7,-9.2s15.4,3.1 21.2,9.2c6.2,5.8 9.2,12.9 9.2,21.2s-3.1,15.5 -9.2,21.7c-5.8,5.9 -12.9,8.8 -21.2,8.8z" class="st0"/>
     <path fill="#2B2D42" d="m791.23065,387.05292c-13.5,0 -25.5,-3.7 -36,-11.1c-10.5,-7.4 -18.6,-17.4 -24.5,-30c-5.8,-12.9 -8.8,-27.7 -8.8,-44.3l0,-252c0,-6.8 2.2,-12.3 6.5,-16.6c4.3,-4.3 9.8,-6.5 16.6,-6.5c6.8,0 12.3,2.2 16.6,6.5c4.3,4.3 6.5,9.8 6.5,16.6l0,252c0,11.4 2.2,20.8 6.5,28.2c4.3,7.4 9.8,11.1 16.6,11.1l11.5,0c6.2,0 11.1,2.2 14.8,6.5c4,4.3 6,9.8 6,16.6c0,6.8 -2.9,12.3 -8.8,16.6c-5.8,4.3 -13.4,6.5 -22.6,6.5l-0.9,0l0,-0.1z" class="st0"/>
     <path fill="#2B2D42" d="m961.13065,388.85292c-22.5,0 -42.6,-5.5 -60.5,-16.6c-17.8,-11.4 -32,-26.6 -42.5,-45.7c-10.2,-19.4 -15.2,-41.2 -15.2,-65.5c0,-24.3 5.5,-46.1 16.6,-65.5c11.4,-19.4 26.6,-34.6 45.7,-45.7c19.4,-11.4 41.1,-17.1 65.1,-17.1c24,0 45.5,5.7 64.6,17.1c19.1,11.1 34.1,26.3 45.2,45.7c11.4,19.4 17.1,41.2 17.1,65.5l-18,0c0,24.3 -5.2,46.1 -15.7,65.5c-10.2,19.1 -24.2,34.3 -42,45.7c-17.8,11.1 -38,16.6 -60.4,16.6l0,0zm9.2,-41.5c15.7,0 29.7,-3.7 42,-11.1c12.3,-7.7 22,-18 29.1,-30.9c7.1,-13.2 10.6,-28 10.6,-44.3c0,-16.6 -3.5,-31.4 -10.6,-44.3c-7.1,-13.2 -16.8,-23.5 -29.1,-30.9c-12.3,-7.7 -26.3,-11.5 -42,-11.5c-15.4,0 -29.4,3.8 -42,11.5c-12.3,7.4 -22.2,17.7 -29.5,30.9c-7.1,12.9 -10.6,27.7 -10.6,44.3c0,16.3 3.5,31.1 10.6,44.3c7.4,12.9 17.2,23.2 29.5,30.9c12.6,7.4 26.6,11.1 42,11.1zm103.4,40.2c-6.8,0 -12.5,-2.2 -17.1,-6.5c-4.3,-4.6 -6.5,-10.3 -6.5,-17.1l0,-70.6l8.8,-48.9l38.3,16.6l0,102.9c0,6.8 -2.3,12.5 -6.9,17.1c-4.3,4.3 -9.9,6.5 -16.6,6.5l0,0zm-104.8,-292.6c-6.8,0 -12.2,-2.2 -16.2,-6.5l-45.2,-44.8c-4,-4 -6,-9.4 -6,-16.2c0,-6.8 2.2,-12.5 6.5,-17.1c4.3,-4.6 9.8,-6.9 16.6,-6.9c6.5,0 12.2,2.3 17.1,6.9l44.8,45.2c4,4 6,9.2 6,15.7c0,6.8 -2.3,12.5 -6.9,17.1c-4.4,4.4 -9.9,6.6 -16.7,6.6l0,0z" class="st0"/>
     <path fill="#2B2D42" d="m1180.73065,301.65292c-6.8,0 -12.5,-2.3 -17.1,-6.9c-4.3,-4.9 -6.5,-10.5 -6.5,-16.6l0,-227.5c0,-6.8 2.2,-12.5 6.5,-17.1c4.6,-4.6 10.3,-6.9 17.1,-6.9c6.8,0 12.3,2.3 16.6,6.9c4.6,4.6 6.9,10.3 6.9,17.1l0,227.5c0,6.5 -2.5,12 -7.4,16.6c-4.5,4.6 -9.9,6.9 -16.1,6.9zm0,85.4c-8.6,0 -16.2,-3.1 -22.6,-9.2c-6.2,-6.2 -9.2,-13.7 -9.2,-22.6c0,-8.9 3.1,-16.5 9.2,-22.6c6.5,-6.5 14,-9.7 22.6,-9.7c8.9,0 16.5,3.2 22.6,9.7c6.2,6.2 9.2,13.7 9.2,22.6c0,8.9 -3.2,16.5 -9.7,22.6c-6.1,6.1 -13.5,9.2 -22.1,9.2l0,0z" class="st0"/>
    </g>
    <g>
     <path fill="#5DADE2" d="m1776.53065,387.05292c-5.2,0 -9.5,-1.5 -12.9,-4.6c-3.4,-3.4 -5.1,-7.7 -5.1,-12.9l0,-132.9c0,-21.8 -5.7,-39.1 -17.1,-51.7c-11.4,-12.9 -26,-19.4 -43.8,-19.4c-19.1,0 -34.8,6.5 -47.1,19.4c-12,12.6 -17.8,29.5 -17.5,50.8l-31.8,0c0.3,-20.6 4.8,-38.8 13.4,-54.5c8.6,-15.7 20.5,-27.8 35.5,-36.5c15.1,-8.6 32.1,-12.9 51.2,-12.9c18.2,0 34.1,4.3 48,12.9c14.2,8.6 25.1,20.8 32.8,36.5c8,15.7 12,34.1 12,55.4l0,132.9c0,5.2 -1.7,9.5 -5.1,12.9c-3.1,3.1 -7.3,4.6 -12.5,4.6l0,0zm-323,0c-5.5,0 -10,-1.5 -13.4,-4.6c-3.1,-3.4 -4.6,-7.7 -4.6,-12.9l0,-216.9c0,-5.2 1.5,-9.5 4.6,-12.9c3.4,-3.4 7.8,-5.1 13.4,-5.1c5.2,0 9.4,1.7 12.5,5.1c3.4,3.4 5.1,7.7 5.1,12.9l0,216.9c0,5.2 -1.7,9.5 -5.1,12.9c-3.2,3.1 -7.3,4.6 -12.5,4.6zm161.9,0c-5.2,0 -9.5,-1.5 -12.9,-4.6c-3.4,-3.4 -5.1,-7.7 -5.1,-12.9l0,-132.9c0,-21.8 -5.7,-39.1 -17.1,-51.7c-11.4,-12.9 -26,-19.4 -43.8,-19.4c-19.1,0 -34.8,6.3 -47.1,18.9c-12.3,12.3 -18.5,28.5 -18.5,48.5l-25.4,0c0.6,-19.7 4.9,-37.1 12.9,-52.1c8.3,-15.4 19.5,-27.4 33.7,-36c14.2,-8.6 30.2,-12.9 48,-12.9c18.2,0 34.1,4.3 48,12.9c14.2,8.6 25.1,20.8 32.8,36.5c8,15.7 12,34.1 12,55.4l0,132.9c0,5.2 -1.7,9.5 -5.1,12.9c-3,3 -7.1,4.5 -12.4,4.5l0,0z" class="st1"/>
     <path fill="#5DADE2" d="m1987.43065,389.35292c-24.6,0 -46.6,-5.5 -66,-16.6s-34.6,-26.3 -45.7,-45.7s-16.6,-41.4 -16.6,-66c0,-24.9 5.5,-47.1 16.6,-66.5s26.3,-34.6 45.7,-45.7c19.4,-11.1 41.4,-16.6 66,-16.6c24.6,0 46.5,5.5 65.5,16.6c19.4,11.1 34.6,26.3 45.7,45.7c11.1,19.4 16.8,41.5 17.1,66.5c0,24.6 -5.7,46.6 -17.1,66c-11.1,19.4 -26.3,34.6 -45.7,45.7c-19.1,11.1 -40.9,16.6 -65.5,16.6zm0,-32.3c17.8,0 33.8,-4.2 48,-12.5c14.2,-8.3 25.2,-19.7 33.2,-34.1c8,-14.5 12,-30.9 12,-49.4c0,-18.5 -4,-34.9 -12,-49.4c-8,-14.8 -19.1,-26.3 -33.2,-34.6c-14.2,-8.3 -30.2,-12.5 -48,-12.5c-17.8,0 -33.8,4.2 -48,12.5c-14.2,8.3 -25.4,19.8 -33.7,34.6c-8,14.5 -12,30.9 -12,49.4c0,18.5 4,34.9 12,49.4c8.3,14.5 19.5,25.8 33.7,34.1c14.1,8.3 30.1,12.5 48,12.5z" class="st1"/>
     <path fill="#5DADE2" d="m2401.33065,387.05292c-5.2,0 -9.5,-1.7 -12.9,-5.1c-3.4,-3.4 -5.1,-7.5 -5.1,-12.5l0,-120c0,-19.1 -3.7,-34.8 -11.1,-47.1c-7.1,-12.3 -16.9,-21.5 -29.5,-27.7c-12.3,-6.2 -26.3,-9.2 -42,-9.2c-15.1,0 -28.8,2.9 -41.1,8.8c-12,5.8 -21.5,13.8 -28.6,24c-7.1,10.2 -10.6,21.7 -10.6,34.6l-25.4,0c0.6,-19.4 5.8,-36.6 15.7,-51.7c9.8,-15.4 22.9,-27.4 39.2,-36c16.3,-8.9 34.5,-13.4 54.5,-13.4c21.8,0 41.4,4.6 58.6,13.8c17.2,8.9 30.8,22.2 40.6,39.7c10.2,17.5 15.2,38.9 15.2,64.1l0,120c0,4.9 -1.7,9.1 -5.1,12.5c-3.3,3.5 -7.4,5.2 -12.4,5.2l0,0zm-198.4,0c-5.5,0 -10,-1.5 -13.4,-4.6c-3.1,-3.4 -4.6,-7.7 -4.6,-12.9l0,-216.9c0,-5.5 1.5,-9.8 4.6,-12.9c3.4,-3.4 7.8,-5.1 13.4,-5.1c5.2,0 9.4,1.7 12.5,5.1c3.4,3.1 5.1,7.4 5.1,12.9l0,216.9c0,5.2 -1.7,9.5 -5.1,12.9c-3.1,3.1 -7.3,4.6 -12.5,4.6z" class="st1"/>
     <path fill="#5DADE2" d="m2611.83065,389.35292c-24.9,0 -47.1,-5.4 -66.5,-16.2c-19.1,-11.1 -34.1,-26.3 -45.2,-45.7c-10.8,-19.4 -16.2,-41.5 -16.2,-66.5c0,-25.2 5.1,-47.4 15.2,-66.5c10.5,-19.4 24.8,-34.6 42.9,-45.7c18.2,-11.1 39.1,-16.6 62.8,-16.6c23.4,0 43.7,5.4 60.9,16.2c17.5,10.5 31.1,25.1 40.6,43.8c9.5,18.8 14.3,40.1 14.3,64.1c0,4.9 -1.5,8.9 -4.6,12c-3.1,2.8 -7.1,4.2 -12,4.2l-196.1,0l0,-29.5l199.8,0l-19.8,14.3c0.3,-17.8 -2.9,-33.8 -9.7,-48s-16.5,-25.2 -29.1,-33.2c-12.3,-8 -27.1,-12 -44.3,-12c-17.5,0 -32.9,4.2 -46.1,12.5c-13.2,8.3 -23.5,19.8 -30.9,34.6c-7.1,14.5 -10.6,31.1 -10.6,49.8s4,35.4 12,49.8c8.3,14.5 19.5,25.8 33.7,34.1c14.2,8.3 30.5,12.5 48.9,12.5c11.1,0 22.2,-1.8 33.2,-5.5c11.4,-4 20.5,-8.9 27.2,-14.8c3.4,-2.8 7.2,-4.2 11.5,-4.2c4.3,-0.3 8,0.8 11.1,3.2c4,3.7 6,7.7 6,12c0.3,4.3 -1.4,8 -5.1,11.1c-10.2,8.6 -23.1,15.8 -38.8,21.7c-15.6,5.7 -30.7,8.5 -45.1,8.5l0,0z" class="st1"/>
     <path fill="#5DADE2" d="m2824.13065,496.85292c-2.5,0 -5.2,-0.6 -8.3,-1.8c-10.5,-4.6 -13.4,-12 -8.8,-22.2l149,-328.5c4.6,-9.8 12,-12.6 22.2,-8.3c10.5,4.3 13.4,11.5 8.8,21.7l-149.5,328.6c-3.1,7 -7.6,10.5 -13.4,10.5l0,0zm51.2,-117.7c-4.6,2.2 -8.9,2.6 -12.9,1.4c-4,-1.5 -7.2,-4.6 -9.7,-9.2l-102.9,-213.2c-2.2,-4.6 -2.5,-8.9 -0.9,-12.9c1.5,-4 4.6,-7.1 9.2,-9.2c4.6,-2.2 8.9,-2.5 12.9,-0.9c4,1.2 7.1,4.2 9.2,8.8l101.1,213.2c2.5,4.6 3.2,8.9 2.3,12.9c-0.9,3.9 -3.7,7 -8.3,9.1l0,0z" class="st1"/>
    </g>
   </g>
  </g>
 </g>

</svg>