<svg width="791" height="131" xmlns="http://www.w3.org/2000/svg" xml:space="preserve" version="1.1">

 <g>
  <title>Layer 1</title>
  <g id="svg_18">
   <g id="svg_1">
    <path id="svg_2" fill="#EDF2F4" d="m32.35314,101.3c-2.5,0 -4.5,-1.3 -5.9,-4l-25.9,-54.6c-0.7,-1.4 -0.7,-2.7 -0.2,-4c0.6,-1.4 1.6,-2.4 3.2,-3.2c1.4,-0.7 2.8,-0.9 4.2,-0.4c1.5,0.5 2.6,1.4 3.3,2.8l24.2,52.1l-5.9,0l23.9,-52.1c0.7,-1.4 1.8,-2.3 3.3,-2.8c1.5,-0.5 3.1,-0.4 4.6,0.4c1.5,0.7 2.4,1.7 2.9,3.1s0.4,2.8 -0.2,4.2l-25.9,54.6c-1.3,2.6 -3.1,3.9 -5.6,3.9l0,0z" class="st0"/>
    <path id="svg_3" fill="#EDF2F4" d="m104.45314,101.9c-6.6,0 -12.4,-1.4 -17.5,-4.3c-5,-2.9 -9,-6.9 -12,-12c-2.8,-5.1 -4.3,-11 -4.3,-17.6c0,-6.7 1.4,-12.5 4.3,-17.6c2.9,-5.1 6.9,-9.1 12,-12c5,-2.9 10.9,-4.4 17.5,-4.4c6.5,0 12.3,1.5 17.3,4.4c5,2.8 9,6.8 11.8,12c2.9,5 4.4,10.9 4.4,17.6c0,6.6 -1.4,12.5 -4.3,17.6c-2.8,5 -6.8,9 -11.8,12c-5,2.9 -10.8,4.3 -17.4,4.3zm0,-11c4.2,0 8,-1 11.2,-2.9c3.3,-2 5.8,-4.6 7.6,-8.1c1.9,-3.4 2.8,-7.4 2.8,-11.8c0,-4.5 -0.9,-8.4 -2.8,-11.8c-1.8,-3.5 -4.3,-6.2 -7.6,-8.2c-3.3,-2 -7,-2.9 -11.2,-2.9c-4.2,0 -8,1 -11.2,2.9c-3.3,2 -5.8,4.7 -7.7,8.2c-1.9,3.4 -2.8,7.4 -2.8,11.8c0,4.5 0.9,8.4 2.8,11.8c1.9,3.4 4.4,6.1 7.7,8.1c3.2,1.9 7,2.9 11.2,2.9z" class="st0"/>
    <path id="svg_4" fill="#EDF2F4" d="m164.05314,101.4c-1.8,0 -3.3,-0.6 -4.5,-1.7c-1.1,-1.2 -1.7,-2.7 -1.7,-4.5l0,-54.3c0,-1.9 0.6,-3.4 1.7,-4.5c1.2,-1.1 2.7,-1.7 4.5,-1.7c1.9,0 3.4,0.6 4.5,1.7c1.1,1.1 1.7,2.6 1.7,4.5l0,54.3c0,1.8 -0.6,3.3 -1.7,4.5c-1.1,1.2 -2.6,1.7 -4.5,1.7zm0,-77.6c-2.2,0 -4.1,-0.8 -5.7,-2.3c-1.5,-1.6 -2.3,-3.5 -2.3,-5.7s0.8,-4.1 2.3,-5.6c1.6,-1.6 3.5,-2.4 5.7,-2.4s4.1,0.8 5.6,2.4c1.6,1.5 2.4,3.4 2.4,5.6s-0.8,4.1 -2.4,5.7c-1.5,1.5 -3.4,2.3 -5.6,2.3z" class="st0"/>
    <path id="svg_5" fill="#EDF2F4" d="m209.35314,101.4c-3.6,0 -6.8,-1 -9.5,-2.9c-2.8,-2 -4.9,-4.6 -6.5,-7.9c-1.5,-3.4 -2.3,-7.3 -2.3,-11.7l0,-66.7c0,-1.8 0.6,-3.3 1.7,-4.4c1.1,-1.1 2.6,-1.7 4.4,-1.7c1.8,0 3.3,0.6 4.4,1.7c1.1,1.1 1.7,2.6 1.7,4.4l0,66.7c0,3 0.6,5.5 1.7,7.4c1.1,2 2.6,2.9 4.4,2.9l3.1,0c1.6,0 2.9,0.6 3.9,1.7c1.1,1.1 1.6,2.6 1.6,4.4c0,1.8 -0.8,3.3 -2.3,4.4c-1.5,1.1 -3.5,1.7 -6,1.7l-0.3,0z" class="st0"/>
    <path id="svg_6" fill="#EDF2F4" d="m254.25314,101.9c-5.9,0 -11.3,-1.5 -16,-4.4c-4.7,-3 -8.5,-7 -11.2,-12.1c-2.7,-5.1 -4,-10.9 -4,-17.3c0,-6.4 1.5,-12.2 4.4,-17.3c3,-5.1 7,-9.2 12.1,-12.1c5.1,-3 10.9,-4.5 17.2,-4.5c6.3,0 12,1.5 17.1,4.5c5,2.9 9,7 12,12.1c3,5.1 4.5,10.9 4.5,17.3l-4.8,0c0,6.4 -1.4,12.2 -4.2,17.3c-2.7,5 -6.4,9.1 -11.1,12.1c-4.7,2.9 -10,4.4 -16,4.4l0,0zm2.5,-11c4.2,0 7.9,-1 11.1,-2.9c3.3,-2 5.8,-4.8 7.7,-8.2c1.9,-3.5 2.8,-7.4 2.8,-11.7c0,-4.4 -0.9,-8.3 -2.8,-11.7c-1.9,-3.5 -4.4,-6.2 -7.7,-8.2c-3.3,-2 -7,-3.1 -11.1,-3.1c-4.1,0 -7.8,1 -11.1,3.1c-3.3,2 -5.9,4.7 -7.8,8.2c-1.9,3.4 -2.8,7.3 -2.8,11.7c0,4.3 0.9,8.2 2.8,11.7c2,3.4 4.6,6.1 7.8,8.2c3.3,1.9 7,2.9 11.1,2.9zm27.3,10.6c-1.8,0 -3.3,-0.6 -4.5,-1.7c-1.1,-1.2 -1.7,-2.7 -1.7,-4.5l0,-18.7l2.3,-12.9l10.1,4.4l0,27.2c0,1.8 -0.6,3.3 -1.8,4.5c-1.1,1.2 -2.6,1.7 -4.4,1.7l0,0zm-27.7,-77.4c-1.8,0 -3.2,-0.6 -4.3,-1.7l-12,-11.8c-1.1,-1.1 -1.6,-2.5 -1.6,-4.3c0,-1.8 0.6,-3.3 1.7,-4.5c1.1,-1.2 2.6,-1.8 4.4,-1.8c1.7,0 3.2,0.6 4.5,1.8l11.8,12c1.1,1.1 1.6,2.4 1.6,4.2c0,1.8 -0.6,3.3 -1.8,4.5c-1,1.1 -2.5,1.6 -4.3,1.6l0,0z" class="st0"/>
    <path id="svg_7" fill="#EDF2F4" d="m312.35314,78.8c-1.8,0 -3.3,-0.6 -4.5,-1.8c-1.1,-1.3 -1.7,-2.8 -1.7,-4.4l0,-60.2c0,-1.8 0.6,-3.3 1.7,-4.5c1.2,-1.2 2.7,-1.8 4.5,-1.8c1.8,0 3.3,0.6 4.4,1.8c1.2,1.2 1.8,2.7 1.8,4.5l0,60.2c0,1.7 -0.7,3.2 -2,4.4c-1.1,1.2 -2.5,1.8 -4.2,1.8zm0,22.6c-2.3,0 -4.3,-0.8 -6,-2.4c-1.6,-1.6 -2.4,-3.6 -2.4,-6c0,-2.4 0.8,-4.4 2.4,-6c1.7,-1.7 3.7,-2.6 6,-2.6c2.4,0 4.4,0.9 6,2.6c1.6,1.6 2.4,3.6 2.4,6c0,2.4 -0.9,4.4 -2.6,6c-1.5,1.6 -3.5,2.4 -5.8,2.4l0,0z" class="st0"/>
   </g>
   <g id="svg_8">
    <path id="svg_9" fill="#5DADE2" d="m470.05314,101.4c-1.4,0 -2.5,-0.4 -3.4,-1.2c-0.9,-0.9 -1.3,-2 -1.3,-3.4l0,-35.2c0,-5.8 -1.5,-10.3 -4.5,-13.7c-3,-3.4 -6.9,-5.1 -11.6,-5.1c-5,0 -9.2,1.7 -12.5,5.1c-3.2,3.3 -4.7,7.8 -4.6,13.4l-8.4,0c0.1,-5.5 1.3,-10.3 3.5,-14.4c2.3,-4.2 5.4,-7.4 9.4,-9.6c4,-2.3 8.5,-3.4 13.6,-3.4c4.8,0 9,1.1 12.7,3.4c3.7,2.3 6.6,5.5 8.7,9.6c2.1,4.2 3.2,9 3.2,14.7l0,35.2c0,1.4 -0.4,2.5 -1.3,3.4c-1,0.8 -2.1,1.2 -3.5,1.2l0,0zm-85.5,0c-1.5,0 -2.6,-0.4 -3.5,-1.2c-0.8,-0.9 -1.2,-2 -1.2,-3.4l0,-57.4c0,-1.4 0.4,-2.5 1.2,-3.4c0.9,-0.9 2.1,-1.3 3.5,-1.3c1.4,0 2.5,0.4 3.3,1.3c0.9,0.9 1.3,2 1.3,3.4l0,57.4c0,1.4 -0.4,2.5 -1.3,3.4c-0.8,0.8 -1.9,1.2 -3.3,1.2zm42.9,0c-1.4,0 -2.5,-0.4 -3.4,-1.2c-0.9,-0.9 -1.3,-2 -1.3,-3.4l0,-35.2c0,-5.8 -1.5,-10.3 -4.5,-13.7c-3,-3.4 -6.9,-5.1 -11.6,-5.1c-5,0 -9.2,1.7 -12.5,5c-3.3,3.3 -4.9,7.5 -4.9,12.8l-6.7,0c0.2,-5.2 1.3,-9.8 3.4,-13.8c2.2,-4.1 5.2,-7.2 8.9,-9.5c3.7,-2.3 8,-3.4 12.7,-3.4c4.8,0 9,1.1 12.7,3.4c3.7,2.3 6.6,5.5 8.7,9.6c2.1,4.2 3.2,9 3.2,14.7l0,35.2c0,1.4 -0.4,2.5 -1.3,3.4c-1,0.8 -2.1,1.2 -3.4,1.2l0,0z" class="st1"/>
    <path id="svg_10" fill="#5DADE2" d="m525.85314,102c-6.5,0 -12.3,-1.5 -17.5,-4.4c-5.1,-2.9 -9.2,-7 -12.1,-12.1c-2.9,-5.1 -4.4,-10.9 -4.4,-17.5c0,-6.6 1.5,-12.5 4.4,-17.6c2.9,-5.1 7,-9.2 12.1,-12.1c5.1,-2.9 10.9,-4.4 17.5,-4.4c6.5,0 12.3,1.5 17.3,4.4c5.1,2.9 9.2,7 12.1,12.1c2.9,5.1 4.4,11 4.5,17.6c0,6.5 -1.5,12.3 -4.5,17.5c-2.9,5.1 -7,9.2 -12.1,12.1c-5,3 -10.8,4.4 -17.3,4.4zm0,-8.5c4.7,0 9,-1.1 12.7,-3.3c3.7,-2.2 6.7,-5.2 8.8,-9c2.1,-3.8 3.2,-8.2 3.2,-13.1c0,-4.9 -1.1,-9.2 -3.2,-13.1c-2.1,-3.9 -5,-7 -8.8,-9.2c-3.7,-2.2 -8,-3.3 -12.7,-3.3c-4.7,0 -9,1.1 -12.7,3.3c-3.7,2.2 -6.7,5.3 -8.9,9.2c-2.1,3.8 -3.2,8.2 -3.2,13.1c0,4.9 1.1,9.2 3.2,13.1c2.2,3.8 5.2,6.8 8.9,9c3.7,2.2 8,3.3 12.7,3.3z" class="st1"/>
    <path id="svg_11" fill="#5DADE2" d="m635.35314,101.4c-1.4,0 -2.5,-0.4 -3.4,-1.3c-0.9,-0.9 -1.3,-2 -1.3,-3.3l0,-31.8c0,-5 -1,-9.2 -2.9,-12.5c-1.9,-3.3 -4.5,-5.7 -7.8,-7.3c-3.3,-1.6 -7,-2.4 -11.1,-2.4c-4,0 -7.6,0.8 -10.9,2.3c-3.2,1.5 -5.7,3.7 -7.6,6.3c-1.9,2.7 -2.8,5.7 -2.8,9.2l-6.7,0c0.2,-5.1 1.5,-9.7 4.2,-13.7c2.6,-4.1 6.1,-7.2 10.4,-9.5c4.3,-2.4 9.1,-3.5 14.4,-3.5c5.8,0 10.9,1.2 15.5,3.7c4.6,2.4 8.1,5.9 10.7,10.5c2.7,4.6 4,10.3 4,17l0,31.7c0,1.3 -0.4,2.4 -1.3,3.3c-1,0.9 -2.1,1.3 -3.4,1.3l0,0zm-52.5,0c-1.5,0 -2.6,-0.4 -3.5,-1.2c-0.8,-0.9 -1.2,-2 -1.2,-3.4l0,-57.4c0,-1.5 0.4,-2.6 1.2,-3.4c0.9,-0.9 2.1,-1.3 3.5,-1.3c1.4,0 2.5,0.4 3.3,1.3c0.9,0.8 1.3,2 1.3,3.4l0,57.4c0,1.4 -0.4,2.5 -1.3,3.4c-0.8,0.8 -1.9,1.2 -3.3,1.2z" class="st1"/>
    <path id="svg_12" fill="#5DADE2" d="m691.05314,102c-6.6,0 -12.5,-1.4 -17.6,-4.3c-5,-2.9 -9,-7 -12,-12.1c-2.8,-5.1 -4.3,-11 -4.3,-17.6c0,-6.7 1.3,-12.5 4,-17.6c2.8,-5.1 6.6,-9.2 11.4,-12.1c4.8,-2.9 10.3,-4.4 16.6,-4.4c6.2,0 11.6,1.4 16.1,4.3c4.6,2.8 8.2,6.6 10.7,11.6c2.5,5 3.8,10.6 3.8,17c0,1.3 -0.4,2.4 -1.2,3.2c-0.8,0.7 -1.9,1.1 -3.2,1.1l-51.9,0l0,-7.8l52.9,0l-5.3,3.8c0.1,-4.7 -0.8,-9 -2.6,-12.7c-1.8,-3.7 -4.4,-6.7 -7.7,-8.8c-3.3,-2.1 -7.2,-3.2 -11.7,-3.2c-4.6,0 -8.7,1.1 -12.2,3.3c-3.5,2.2 -6.2,5.3 -8.2,9.2c-1.9,3.8 -2.8,8.2 -2.8,13.2s1.1,9.4 3.2,13.2c2.2,3.8 5.2,6.8 8.9,9c3.7,2.2 8.1,3.3 12.9,3.3c2.9,0 5.9,-0.5 8.8,-1.5c3,-1.1 5.4,-2.4 7.2,-3.9c0.9,-0.7 1.9,-1.1 3.1,-1.1c1.1,-0.1 2.1,0.2 2.9,0.9c1.1,1 1.6,2 1.6,3.2c0.1,1.1 -0.4,2.1 -1.3,2.9c-2.7,2.3 -6.1,4.2 -10.3,5.7c-4,1.5 -8,2.2 -11.8,2.2l0,0z" class="st1"/>
    <path id="svg_13" fill="#5DADE2" d="m747.15314,130.5c-0.7,0 -1.4,-0.2 -2.2,-0.5c-2.8,-1.2 -3.5,-3.2 -2.3,-5.9l39.4,-86.9c1.2,-2.6 3.2,-3.3 5.9,-2.2c2.8,1.1 3.5,3.1 2.3,5.7l-39.6,86.9c-0.7,1.9 -1.9,2.9 -3.5,2.9l0,0zm13.6,-31.2c-1.2,0.6 -2.4,0.7 -3.4,0.4c-1.1,-0.4 -1.9,-1.2 -2.6,-2.4l-27.2,-56.4c-0.6,-1.2 -0.7,-2.4 -0.2,-3.4c0.4,-1.1 1.2,-1.9 2.4,-2.4c1.2,-0.6 2.4,-0.7 3.4,-0.2c1.1,0.3 1.9,1.1 2.4,2.3l26.7,56.4c0.7,1.2 0.9,2.4 0.6,3.4s-0.9,1.8 -2.1,2.3l0,0z" class="st1"/>
   </g>
  </g>
 </g>
</svg>