<?xml version="1.0" encoding="utf-8"?>
<!-- Generator: Adobe Illustrator 23.0.0, SVG Export Plug-In . SVG Version: 6.00 Build 0)  -->
<svg version="1.1" id="Layer_1" xmlns="http://www.w3.org/2000/svg" xmlns:xlink="http://www.w3.org/1999/xlink" x="0px" y="0px"
	 viewBox="0 0 1024 1024" style="enable-background:new 0 0 1024 1024;" xml:space="preserve">
<style type="text/css">
	.st0{fill:#702AE2;}
	.st1{fill:#3C1679;}
	.st2{fill:#FFFFFF;}
</style>
<g >
	<path class="st0" d="M1010,512L1010,512c0,131.9-51.2,251.8-134.9,340.8C784.3,949.6,655.2,1010,512,1010c-275,0-498-223-498-498v0
		c0-275,223-498,498-498c137.5,0,262,55.7,352.2,145.8c54.9,54.9,97.1,122.6,121.7,198.3C1001.5,406.6,1010,458.3,1010,512z"/>
	<path class="st1" d="M1001.1,606.3c-18.1,94.3-62.8,179.2-125.9,246.5C784.3,949.6,655.2,1010,512,1010c-2.2,0-4.4,0-6.6,0
		L370.6,754.1l24,42c24.1,42.1,68.8,68.1,117.3,68.1s93.3-26,117.3-68.1l208.7-365c23.7-41.4,23-90,2.6-129.4L1001.1,606.3z"/>
	<path class="st0" d="M838.1,431.1l-208.7,365c-24.1,42.1-68.8,68.1-117.3,68.1s-93.3-26-117.3-68.1l-24-42l-184.7-323
		c-37-64.8-14.6-147.4,50.2-184.4c64.8-37,147.4-14.5,184.4,50.2L512,456.7l91.4-159.8c37-64.8,119.6-87.3,184.4-50.2
		c23.4,13.4,41.3,32.7,52.9,55C861.1,341.1,861.7,389.7,838.1,431.1z"/>
	<path class="st2" d="M840.7,301.7c-11.6-22.3-29.4-41.6-52.9-55c-44.3-25.3-96.9-22.8-137.6,2c-18.8,11.5-35.1,27.8-46.8,48.3
		L512,456.7l-67.1-117.4l-24.2-42.4c-37-64.8-119.6-87.3-184.4-50.2c-64.8,37.1-87.3,119.7-50.2,184.4l184.7,323l24,42
		c24.1,42.1,68.8,68.1,117.3,68.1c48.5,0,93.3-26,117.3-68.1l126.2-220.7c0.1-0.1,0.1-0.2,0.2-0.3l51.1-89.4l31.2-54.6
		C861.7,389.7,861.1,341.1,840.7,301.7z"/>
</g>
</svg>
